<svg xmlns="http://www.w3.org/2000/svg" xmlns:xlink="http://www.w3.org/1999/xlink" zoomAndPan="magnify" preserveAspectRatio="xMidYMid meet" version="1.0" viewBox="51.32 153.26 273.87 68.74"><defs><g/><clipPath id="313a2060d7"><path d="M 176.144531 201 L 321 201 L 321 222 L 176.144531 222 Z M 176.144531 201 " clip-rule="nonzero"/></clipPath></defs><g fill="#54acdc" fill-opacity="1"><g transform="translate(60.38672, 202.499987)"><g><path d="M 27.40625 0 L 21.46875 0 L 19.3125 -6.578125 L 8.375 -6.578125 L 6.234375 0 L 0.4375 0 L 10.296875 -28.5625 L 17.546875 -28.5625 Z M 13.578125 -22.59375 L 9.90625 -11.328125 L 17.75 -11.328125 L 14.0625 -22.59375 Z M 13.578125 -22.59375 "/></g></g></g><g fill="#54acdc" fill-opacity="1"><g transform="translate(88.216037, 202.499987)"><g><path d="M 9.359375 -28.5625 L 9.359375 -4.734375 L 22.1875 -4.734375 L 22.1875 0 L 3.71875 0 L 3.71875 -28.5625 Z M 9.359375 -28.5625 "/></g></g></g><g fill="#54acdc" fill-opacity="1"><g transform="translate(111.338777, 202.499987)"><g><path d="M 9.359375 0 L 3.71875 0 L 3.71875 -28.5625 L 9.359375 -28.5625 Z M 9.359375 0 "/></g></g></g><g fill="#54acdc" fill-opacity="1"><g transform="translate(124.423436, 202.499987)"><g/></g></g><g fill="#54acdc" fill-opacity="1"><g transform="translate(133.856114, 202.499987)"><g><path d="M 9.359375 -12.546875 L 9.359375 -4.734375 L 22.984375 -4.734375 L 22.984375 0 L 3.71875 0 L 3.71875 -28.5625 L 22.671875 -28.5625 L 22.671875 -23.828125 L 9.359375 -23.828125 L 9.359375 -17.15625 L 21 -17.15625 L 21 -12.546875 Z M 9.359375 -12.546875 "/></g></g></g><g fill="#54acdc" fill-opacity="1"><g transform="translate(158.404502, 202.499987)"><g><path d="M 9.359375 -28.5625 L 9.359375 -4.734375 L 22.1875 -4.734375 L 22.1875 0 L 3.71875 0 L 3.71875 -28.5625 Z M 9.359375 -28.5625 "/></g></g></g><g fill="#54acdc" fill-opacity="1"><g transform="translate(181.527242, 202.499987)"><g><path d="M 12.65625 0.40625 C 10.675781 0.40625 8.914062 0.160156 7.375 -0.328125 C 5.832031 -0.816406 4.546875 -1.457031 3.515625 -2.25 C 2.484375 -3.039062 1.695312 -3.910156 1.15625 -4.859375 L 4.265625 -8.65625 L 4.75 -8.65625 C 5.601562 -7.375 6.691406 -6.351562 8.015625 -5.59375 C 9.335938 -4.84375 10.882812 -4.46875 12.65625 -4.46875 C 14.164062 -4.46875 15.304688 -4.785156 16.078125 -5.421875 C 16.847656 -6.066406 17.234375 -6.945312 17.234375 -8.0625 C 17.234375 -8.738281 17.109375 -9.304688 16.859375 -9.765625 C 16.609375 -10.222656 16.195312 -10.613281 15.625 -10.9375 C 15.050781 -11.257812 14.273438 -11.539062 13.296875 -11.78125 L 9.625 -12.625 C 7.0625 -13.207031 5.148438 -14.175781 3.890625 -15.53125 C 2.640625 -16.894531 2.015625 -18.664062 2.015625 -20.84375 C 2.015625 -22.457031 2.414062 -23.875 3.21875 -25.09375 C 4.03125 -26.320312 5.207031 -27.273438 6.75 -27.953125 C 8.289062 -28.628906 10.132812 -28.96875 12.28125 -28.96875 C 14.488281 -28.96875 16.375 -28.675781 17.9375 -28.09375 C 19.507812 -27.519531 20.835938 -26.632812 21.921875 -25.4375 L 19.125 -21.609375 L 18.640625 -21.609375 C 17.828125 -22.453125 16.898438 -23.082031 15.859375 -23.5 C 14.816406 -23.925781 13.625 -24.140625 12.28125 -24.140625 C 10.738281 -24.140625 9.5625 -23.863281 8.75 -23.3125 C 7.945312 -22.769531 7.546875 -22.019531 7.546875 -21.0625 C 7.546875 -20.15625 7.828125 -19.4375 8.390625 -18.90625 C 8.953125 -18.375 9.929688 -17.957031 11.328125 -17.65625 L 15.078125 -16.875 C 17.847656 -16.289062 19.859375 -15.296875 21.109375 -13.890625 C 22.359375 -12.492188 22.984375 -10.671875 22.984375 -8.421875 C 22.984375 -6.640625 22.597656 -5.085938 21.828125 -3.765625 C 21.066406 -2.441406 19.910156 -1.414062 18.359375 -0.6875 C 16.804688 0.0390625 14.90625 0.40625 12.65625 0.40625 Z M 12.65625 0.40625 "/></g></g></g><g fill="#54acdc" fill-opacity="1"><g transform="translate(206.056094, 202.499987)"><g><path d="M 27.40625 0 L 21.46875 0 L 19.3125 -6.578125 L 8.375 -6.578125 L 6.234375 0 L 0.4375 0 L 10.296875 -28.5625 L 17.546875 -28.5625 Z M 13.578125 -22.59375 L 9.90625 -11.328125 L 17.75 -11.328125 L 14.0625 -22.59375 Z M 13.578125 -22.59375 "/></g></g></g><g fill="#54acdc" fill-opacity="1"><g transform="translate(233.885412, 202.499987)"><g><path d="M 15.640625 0 L 10 0 L 10 -11.21875 L 0.140625 -28.5625 L 6.1875 -28.5625 L 12.71875 -17.328125 L 13.203125 -17.328125 L 19.59375 -28.5625 L 25.515625 -28.5625 L 15.640625 -11.21875 Z M 15.640625 0 "/></g></g></g><g fill="#54acdc" fill-opacity="1"><g transform="translate(259.527454, 202.499987)"><g><path d="M 9.359375 -12.546875 L 9.359375 -4.734375 L 22.984375 -4.734375 L 22.984375 0 L 3.71875 0 L 3.71875 -28.5625 L 22.671875 -28.5625 L 22.671875 -23.828125 L 9.359375 -23.828125 L 9.359375 -17.15625 L 21 -17.15625 L 21 -12.546875 Z M 9.359375 -12.546875 "/></g></g></g><g fill="#54acdc" fill-opacity="1"><g transform="translate(284.075853, 202.499987)"><g><path d="M 13.984375 -28.5625 C 18.617188 -28.5625 22.15625 -27.363281 24.59375 -24.96875 C 27.039062 -22.570312 28.265625 -19.007812 28.265625 -14.28125 C 28.265625 -9.5625 27.039062 -6 24.59375 -3.59375 C 22.15625 -1.195312 18.617188 0 13.984375 0 L 3.71875 0 L 3.71875 -28.5625 Z M 13.65625 -4.75 C 16.59375 -4.75 18.789062 -5.5 20.25 -7 C 21.707031 -8.507812 22.4375 -10.9375 22.4375 -14.28125 C 22.4375 -17.625 21.707031 -20.046875 20.25 -21.546875 C 18.789062 -23.054688 16.59375 -23.8125 13.65625 -23.8125 L 9.359375 -23.8125 L 9.359375 -4.75 Z M 13.65625 -4.75 "/></g></g></g><g clip-path="url(#313a2060d7)"><path fill="#486f99" d="M 177.792969 221.65625 C 186.660156 217.070312 197.007812 216.011719 206.84375 215.773438 C 217.433594 215.5 227.992188 216.195312 238.519531 217.160156 C 249.167969 218.15625 259.785156 219.390625 270.464844 220.144531 C 275.773438 220.507812 281.113281 220.71875 286.453125 220.75 C 291.460938 220.78125 296.527344 220.808594 301.535156 220.207031 C 306.574219 219.601562 311.613281 218.183594 315.472656 214.714844 C 318.851562 211.667969 321.296875 207.023438 320.359375 202.40625 C 319.96875 200.476562 316.953125 200.929688 316.953125 202.859375 C 316.980469 206.964844 315.382812 210.433594 312.214844 213.027344 C 308.65625 215.953125 303.890625 216.976562 299.457031 217.523438 C 289.378906 218.699219 279.121094 218.304688 269.015625 217.613281 C 248.503906 216.164062 228.050781 212.816406 207.445312 213.539062 C 196.949219 213.871094 186.328125 215.078125 177.191406 220.628906 C 176.527344 221.019531 177.097656 222.015625 177.792969 221.65625 Z M 177.792969 221.65625 " fill-opacity="1" fill-rule="nonzero"/></g><path fill="#486f99" d="M 181.773438 214.957031 C 190.765625 211.667969 200.054688 210.886719 209.558594 210.824219 C 210.070312 210.824219 210.253906 209.949219 209.679688 209.890625 C 200.175781 208.472656 190.28125 210.734375 181.5625 214.566406 C 181.382812 214.65625 181.535156 215.046875 181.773438 214.957031 Z M 181.773438 214.957031 " fill-opacity="1" fill-rule="nonzero"/><path fill="#486f99" d="M 311.945312 220.238281 C 315.414062 219.753906 318.609375 218.09375 321.023438 215.589844 C 322.261719 214.324219 323.316406 212.875 324.042969 211.277344 C 324.644531 210.011719 325.761719 207.746094 324.855469 206.449219 C 324.433594 205.847656 323.710938 205.757812 323.167969 206.238281 C 322.140625 207.113281 322.292969 209.105469 321.871094 210.371094 C 321.386719 211.820312 320.691406 213.175781 319.816406 214.414062 C 317.855469 217.097656 315.050781 219.058594 311.855469 219.933594 C 311.644531 219.964844 311.734375 220.265625 311.945312 220.238281 Z M 311.945312 220.238281 " fill-opacity="1" fill-rule="nonzero"/><path fill="#486f99" d="M 198.730469 153.339844 C 189.859375 157.925781 179.511719 158.980469 169.679688 159.222656 C 159.089844 159.492188 148.53125 158.800781 138.003906 157.835938 C 127.355469 156.839844 116.734375 155.601562 106.058594 154.847656 C 100.746094 154.484375 95.40625 154.273438 90.066406 154.246094 C 85.0625 154.214844 79.992188 154.183594 74.984375 154.789062 C 69.945312 155.390625 64.910156 156.808594 61.046875 160.277344 C 57.667969 163.324219 55.226562 167.96875 56.160156 172.585938 C 56.554688 174.515625 59.570312 174.0625 59.570312 172.132812 C 59.539062 168.03125 61.136719 164.5625 64.304688 161.96875 C 67.867188 159.039062 72.632812 158.015625 77.066406 157.472656 C 87.140625 156.296875 97.398438 156.6875 107.503906 157.382812 C 128.019531 158.828125 148.472656 162.179688 169.074219 161.453125 C 179.574219 161.121094 190.191406 159.914062 199.332031 154.363281 C 199.996094 153.972656 199.421875 152.976562 198.730469 153.339844 Z M 198.730469 153.339844 " fill-opacity="1" fill-rule="nonzero"/><path fill="#486f99" d="M 194.746094 160.035156 C 185.757812 163.324219 176.464844 164.109375 166.964844 164.167969 C 166.449219 164.167969 166.269531 165.042969 166.84375 165.105469 C 176.34375 166.523438 186.238281 164.257812 194.957031 160.429688 C 195.140625 160.339844 194.988281 159.945312 194.746094 160.035156 Z M 194.746094 160.035156 " fill-opacity="1" fill-rule="nonzero"/><path fill="#486f99" d="M 64.578125 154.757812 C 61.109375 155.238281 57.910156 156.898438 55.496094 159.402344 C 54.261719 160.667969 53.203125 162.117188 52.480469 163.714844 C 51.878906 164.984375 50.761719 167.246094 51.664062 168.542969 C 52.089844 169.148438 52.8125 169.238281 53.355469 168.753906 C 54.382812 167.878906 54.230469 165.886719 54.652344 164.621094 C 55.136719 163.171875 55.828125 161.816406 56.703125 160.578125 C 58.664062 157.894531 61.46875 155.933594 64.667969 155.058594 C 64.878906 155.027344 64.789062 154.726562 64.578125 154.757812 Z M 64.578125 154.757812 " fill-opacity="1" fill-rule="nonzero"/></svg>