<svg xmlns="http://www.w3.org/2000/svg" xmlns:xlink="http://www.w3.org/1999/xlink" zoomAndPan="magnify" preserveAspectRatio="xMidYMid meet" version="1.0" viewBox="72.74 158 239.83 75"><defs><g/><clipPath id="1bdf713c89"><path d="M 164 211.25 L 308 211.25 L 308 233 L 164 233 Z M 164 211.25 " clip-rule="nonzero"/></clipPath><clipPath id="9b7fb649f9"><path d="M 77 158 L 221.792969 158 L 221.792969 179 L 77 179 Z M 77 158 " clip-rule="nonzero"/></clipPath></defs><g fill="#54acdc" fill-opacity="1"><g transform="translate(97.388669, 202.499987)"><g><path d="M 8.71875 -5.40625 C 10.507812 -5.40625 11.695312 -5.632812 12.28125 -6.09375 C 12.863281 -6.5625 13.15625 -7.09375 13.15625 -7.6875 C 13.15625 -8.320312 12.972656 -9.066406 12.609375 -9.921875 C 12.253906 -10.773438 11.8125 -11.664062 11.28125 -12.59375 C 10.75 -13.53125 10.1875 -14.425781 9.59375 -15.28125 C 9.007812 -16.132812 8.503906 -16.878906 8.078125 -17.515625 L 12.84375 -20.6875 C 14.570312 -18.363281 15.9375 -16.113281 16.9375 -13.9375 C 17.9375 -11.769531 18.597656 -10.003906 18.921875 -8.640625 C 19.210938 -7.359375 19.769531 -6.5 20.59375 -6.0625 C 21.425781 -5.625 22.296875 -5.40625 23.203125 -5.40625 C 24.210938 -5.40625 24.9375 -5.144531 25.375 -4.625 C 25.820312 -4.101562 26.046875 -3.457031 26.046875 -2.6875 C 26.046875 -1.851562 25.769531 -1.160156 25.21875 -0.609375 C 24.675781 -0.0664062 23.867188 0.203125 22.796875 0.203125 C 20.296875 0.203125 18.429688 -0.570312 17.203125 -2.125 C 16.484375 -1.425781 15.46875 -0.859375 14.15625 -0.421875 C 12.851562 0.015625 11.304688 0.234375 9.515625 0.234375 C 8.296875 0.234375 6.925781 0.0859375 5.40625 -0.203125 C 3.882812 -0.492188 2.550781 -0.957031 1.40625 -1.59375 L 3.359375 -6.6875 C 4.347656 -6.226562 5.300781 -5.898438 6.21875 -5.703125 C 7.132812 -5.503906 7.96875 -5.40625 8.71875 -5.40625 Z M 8.71875 -5.40625 "/></g></g></g><g fill="#54acdc" fill-opacity="1"><g transform="translate(120.226394, 202.499987)"><g><path d="M 0 0.203125 L 0.40625 -5.40625 C 1.363281 -5.40625 2.1875 -5.492188 2.875 -5.671875 C 3.570312 -5.859375 4.160156 -6.238281 4.640625 -6.8125 C 5.117188 -7.394531 5.523438 -8.242188 5.859375 -9.359375 C 6.191406 -10.484375 6.492188 -11.976562 6.765625 -13.84375 L 12 -12.953125 C 11.894531 -12.347656 11.773438 -11.617188 11.640625 -10.765625 C 11.503906 -9.910156 11.4375 -9.125 11.4375 -8.40625 C 11.4375 -7.4375 11.835938 -6.691406 12.640625 -6.171875 C 13.441406 -5.660156 14.816406 -5.40625 16.765625 -5.40625 C 17.742188 -5.40625 18.453125 -5.144531 18.890625 -4.625 C 19.335938 -4.101562 19.5625 -3.457031 19.5625 -2.6875 C 19.5625 -1.851562 19.285156 -1.160156 18.734375 -0.609375 C 18.191406 -0.0664062 17.398438 0.203125 16.359375 0.203125 C 14.492188 0.203125 12.898438 -0.0351562 11.578125 -0.515625 C 10.253906 -0.992188 9.289062 -1.847656 8.6875 -3.078125 C 7.957031 -2.117188 7.109375 -1.40625 6.140625 -0.9375 C 5.171875 -0.46875 4.15625 -0.160156 3.09375 -0.015625 C 2.039062 0.128906 1.007812 0.203125 0 0.203125 Z M 11.15625 9.484375 C 10.382812 9.484375 9.722656 9.21875 9.171875 8.6875 C 8.628906 8.15625 8.359375 7.5 8.359375 6.71875 C 8.359375 5.945312 8.628906 5.28125 9.171875 4.71875 C 9.722656 4.164062 10.382812 3.890625 11.15625 3.890625 C 11.90625 3.890625 12.546875 4.164062 13.078125 4.71875 C 13.609375 5.28125 13.875 5.945312 13.875 6.71875 C 13.875 7.5 13.609375 8.15625 13.078125 8.6875 C 12.546875 9.21875 11.90625 9.484375 11.15625 9.484375 Z M 4.234375 9.484375 C 3.460938 9.484375 2.800781 9.21875 2.25 8.6875 C 1.707031 8.15625 1.4375 7.5 1.4375 6.71875 C 1.4375 5.945312 1.707031 5.28125 2.25 4.71875 C 2.800781 4.164062 3.460938 3.890625 4.234375 3.890625 C 4.984375 3.890625 5.625 4.164062 6.15625 4.71875 C 6.695312 5.28125 6.96875 5.945312 6.96875 6.71875 C 6.96875 7.5 6.695312 8.15625 6.15625 8.6875 C 5.625 9.21875 4.984375 9.484375 4.234375 9.484375 Z M 4.234375 9.484375 "/></g></g></g><g fill="#54acdc" fill-opacity="1"><g transform="translate(136.584772, 202.499987)"><g><path d="M 0 0.203125 L 0.40625 -5.40625 C 1.28125 -5.40625 2 -5.476562 2.5625 -5.625 C 3.125 -5.769531 3.582031 -6.101562 3.9375 -6.625 C 4.300781 -7.144531 4.617188 -7.929688 4.890625 -8.984375 C 5.171875 -10.035156 5.488281 -11.46875 5.84375 -13.28125 L 11.046875 -12.3125 C 10.929688 -11.726562 10.785156 -10.992188 10.609375 -10.109375 C 10.441406 -9.234375 10.359375 -8.476562 10.359375 -7.84375 C 10.359375 -7.09375 10.59375 -6.5 11.0625 -6.0625 C 11.53125 -5.625 12.429688 -5.40625 13.765625 -5.40625 C 14.453125 -5.40625 15.039062 -5.476562 15.53125 -5.625 C 16.03125 -5.769531 16.457031 -6.101562 16.8125 -6.625 C 17.175781 -7.144531 17.5 -7.957031 17.78125 -9.0625 C 18.0625 -10.164062 18.332031 -11.664062 18.59375 -13.5625 L 23.875 -12.71875 C 23.71875 -11.78125 23.554688 -10.789062 23.390625 -9.75 C 23.234375 -8.71875 23.15625 -7.9375 23.15625 -7.40625 C 23.15625 -6.863281 23.398438 -6.394531 23.890625 -6 C 24.390625 -5.601562 25.382812 -5.40625 26.875 -5.40625 C 29.226562 -5.40625 30.40625 -6.457031 30.40625 -8.5625 C 30.40625 -9.46875 30.367188 -10.5 30.296875 -11.65625 C 30.234375 -12.820312 30.09375 -14.269531 29.875 -16 L 35.046875 -16.40625 C 35.222656 -14.101562 35.429688 -12.234375 35.671875 -10.796875 C 35.921875 -9.359375 36.25 -8.242188 36.65625 -7.453125 C 37.070312 -6.671875 37.632812 -6.132812 38.34375 -5.84375 C 39.050781 -5.550781 39.976562 -5.40625 41.125 -5.40625 C 42.132812 -5.40625 42.859375 -5.144531 43.296875 -4.625 C 43.734375 -4.101562 43.953125 -3.457031 43.953125 -2.6875 C 43.953125 -1.851562 43.675781 -1.160156 43.125 -0.609375 C 42.582031 -0.0664062 41.78125 0.203125 40.71875 0.203125 C 39.84375 0.203125 38.9375 0.109375 38 -0.078125 C 37.0625 -0.265625 36.1875 -0.648438 35.375 -1.234375 C 34.5625 -1.828125 33.90625 -2.707031 33.40625 -3.875 C 32.8125 -2.25 31.953125 -1.160156 30.828125 -0.609375 C 29.710938 -0.0664062 28.265625 0.203125 26.484375 0.203125 C 25.066406 0.203125 23.835938 -0.015625 22.796875 -0.453125 C 21.753906 -0.898438 21.019531 -1.65625 20.59375 -2.71875 C 20.09375 -1.863281 19.519531 -1.226562 18.875 -0.8125 C 18.238281 -0.40625 17.476562 -0.132812 16.59375 0 C 15.71875 0.132812 14.679688 0.203125 13.484375 0.203125 C 12.765625 0.203125 12.050781 0.144531 11.34375 0.03125 C 10.632812 -0.0703125 9.96875 -0.316406 9.34375 -0.703125 C 8.71875 -1.085938 8.191406 -1.707031 7.765625 -2.5625 C 6.859375 -1.363281 5.75 -0.601562 4.4375 -0.28125 C 3.132812 0.0390625 1.65625 0.203125 0 0.203125 Z M 0 0.203125 "/></g></g></g><g fill="#54acdc" fill-opacity="1"><g transform="translate(177.340717, 202.499987)"><g><path d="M 0 0.203125 L 0.40625 -5.40625 C 1.625 -5.40625 2.5 -5.53125 3.03125 -5.78125 C 3.570312 -6.03125 3.894531 -6.507812 4 -7.21875 C 4.101562 -7.925781 4.128906 -8.957031 4.078125 -10.3125 L 3.359375 -29.28125 L 9 -29.28125 L 9.796875 -9.921875 C 9.847656 -8.367188 9.785156 -6.972656 9.609375 -5.734375 C 9.441406 -4.492188 9.03125 -3.429688 8.375 -2.546875 C 7.726562 -1.671875 6.726562 -0.992188 5.375 -0.515625 C 4.03125 -0.0351562 2.238281 0.203125 0 0.203125 Z M 0 0.203125 "/></g></g></g><g fill="#54acdc" fill-opacity="1"><g transform="translate(189.219535, 202.499987)"><g><path d="M 3.203125 0 L 2.359375 -29.28125 L 7.953125 -29.28125 L 8.796875 0 Z M 3.203125 0 "/></g></g></g><g fill="#54acdc" fill-opacity="1"><g transform="translate(200.138445, 202.499987)"><g/></g></g><g fill="#54acdc" fill-opacity="1"><g transform="translate(209.571122, 202.499987)"><g><path d="M 1.046875 -1.125 C 1.046875 -2.03125 1.171875 -3.1875 1.421875 -4.59375 C 1.671875 -6.007812 2.238281 -7.691406 3.125 -9.640625 L 8.046875 -7.921875 C 7.585938 -6.671875 7.238281 -5.597656 7 -4.703125 C 6.757812 -3.804688 6.640625 -2.929688 6.640625 -2.078125 C 6.640625 -0.316406 7.390625 1.070312 8.890625 2.09375 C 10.398438 3.125 12.570312 3.640625 15.40625 3.640625 C 18.332031 3.640625 20.628906 3.363281 22.296875 2.8125 C 23.960938 2.269531 24.796875 1.46875 24.796875 0.40625 C 24.796875 -0.0507812 24.425781 -0.503906 23.6875 -0.953125 C 22.957031 -1.410156 21.703125 -1.957031 19.921875 -2.59375 L 21.234375 -8.234375 C 23.503906 -7.273438 25.570312 -6.5625 27.4375 -6.09375 C 29.300781 -5.632812 30.957031 -5.40625 32.40625 -5.40625 C 33.414062 -5.40625 34.132812 -5.144531 34.5625 -4.625 C 34.988281 -4.101562 35.203125 -3.457031 35.203125 -2.6875 C 35.203125 -1.851562 34.921875 -1.160156 34.359375 -0.609375 C 33.796875 -0.0664062 33.007812 0.203125 32 0.203125 L 30.15625 0.203125 C 30.207031 0.460938 30.234375 0.691406 30.234375 0.890625 C 30.234375 1.097656 30.234375 1.296875 30.234375 1.484375 C 30.234375 2.359375 29.929688 3.25 29.328125 4.15625 C 28.734375 5.0625 27.8125 5.898438 26.5625 6.671875 C 25.3125 7.453125 23.71875 8.070312 21.78125 8.53125 C 19.84375 9 17.539062 9.234375 14.875 9.234375 C 10.53125 9.234375 7.140625 8.398438 4.703125 6.734375 C 2.265625 5.066406 1.046875 2.445312 1.046875 -1.125 Z M 18.796875 18.515625 C 18.023438 18.515625 17.363281 18.25 16.8125 17.71875 C 16.269531 17.1875 16 16.53125 16 15.75 C 16 14.976562 16.269531 14.3125 16.8125 13.75 C 17.363281 13.195312 18.023438 12.921875 18.796875 12.921875 C 19.546875 12.921875 20.1875 13.195312 20.71875 13.75 C 21.25 14.3125 21.515625 14.976562 21.515625 15.75 C 21.515625 16.53125 21.25 17.1875 20.71875 17.71875 C 20.1875 18.25 19.546875 18.515625 18.796875 18.515625 Z M 11.875 18.515625 C 11.101562 18.515625 10.441406 18.25 9.890625 17.71875 C 9.347656 17.1875 9.078125 16.53125 9.078125 15.75 C 9.078125 14.976562 9.347656 14.3125 9.890625 13.75 C 10.441406 13.195312 11.101562 12.921875 11.875 12.921875 C 12.625 12.921875 13.265625 13.195312 13.796875 13.75 C 14.335938 14.3125 14.609375 14.976562 14.609375 15.75 C 14.609375 16.53125 14.335938 17.1875 13.796875 17.71875 C 13.265625 18.25 12.625 18.515625 11.875 18.515625 Z M 11.875 18.515625 "/></g></g></g><g fill="#54acdc" fill-opacity="1"><g transform="translate(241.567943, 202.499987)"><g><path d="M 0 0.203125 L 0.40625 -5.40625 C 1.625 -5.40625 2.5 -5.53125 3.03125 -5.78125 C 3.570312 -6.03125 3.894531 -6.507812 4 -7.21875 C 4.101562 -7.925781 4.128906 -8.957031 4.078125 -10.3125 L 3.4375 -29.28125 L 9.125 -29.28125 L 9.796875 -10.359375 C 9.847656 -8.992188 10.007812 -7.957031 10.28125 -7.25 C 10.550781 -6.550781 11 -6.066406 11.625 -5.796875 C 12.25 -5.535156 13.09375 -5.40625 14.15625 -5.40625 C 15.175781 -5.40625 15.894531 -5.144531 16.3125 -4.625 C 16.738281 -4.101562 16.953125 -3.457031 16.953125 -2.6875 C 16.953125 -1.851562 16.671875 -1.160156 16.109375 -0.609375 C 15.554688 -0.0664062 14.773438 0.203125 13.765625 0.203125 C 12.378906 0.203125 11.109375 0.015625 9.953125 -0.359375 C 8.804688 -0.734375 7.941406 -1.492188 7.359375 -2.640625 C 6.609375 -1.515625 5.644531 -0.757812 4.46875 -0.375 C 3.300781 0.0078125 1.8125 0.203125 0 0.203125 Z M 0 0.203125 "/></g></g></g><g fill="#54acdc" fill-opacity="1"><g transform="translate(255.326579, 202.499987)"><g><path d="M 0 0.203125 L 0.40625 -5.40625 C 1.65625 -5.40625 2.617188 -5.414062 3.296875 -5.4375 C 3.972656 -5.46875 4.484375 -5.5 4.828125 -5.53125 C 5.179688 -5.570312 5.476562 -5.609375 5.71875 -5.640625 C 5.425781 -5.910156 5.070312 -6.296875 4.65625 -6.796875 C 4.25 -7.304688 3.878906 -7.957031 3.546875 -8.75 C 3.210938 -9.550781 3.046875 -10.515625 3.046875 -11.640625 C 3.046875 -13.265625 3.460938 -14.691406 4.296875 -15.921875 C 5.140625 -17.148438 6.28125 -18.109375 7.71875 -18.796875 C 9.15625 -19.492188 10.769531 -19.84375 12.5625 -19.84375 C 14.15625 -19.84375 15.6875 -19.628906 17.15625 -19.203125 L 16.28125 -13.875 C 15.75 -14.007812 15.179688 -14.113281 14.578125 -14.1875 C 13.984375 -14.269531 13.472656 -14.3125 13.046875 -14.3125 C 11.710938 -14.3125 10.648438 -14.003906 9.859375 -13.390625 C 9.078125 -12.785156 8.6875 -11.972656 8.6875 -10.953125 C 8.6875 -10.179688 8.90625 -9.507812 9.34375 -8.9375 C 9.78125 -8.363281 10.28125 -7.90625 10.84375 -7.5625 C 11.40625 -7.21875 11.859375 -6.988281 12.203125 -6.875 C 13.078125 -7.144531 13.820312 -7.363281 14.4375 -7.53125 C 15.050781 -7.707031 15.691406 -7.921875 16.359375 -8.171875 C 17.023438 -8.429688 17.90625 -8.800781 19 -9.28125 L 20.796875 -4 C 18.554688 -2.90625 16.367188 -2.050781 14.234375 -1.4375 C 12.109375 -0.820312 9.894531 -0.394531 7.59375 -0.15625 C 5.300781 0.0820312 2.769531 0.203125 0 0.203125 Z M 0 0.203125 "/></g></g></g><g clip-path="url(#1bdf713c89)"><path fill="#486f99" d="M 165.164062 232.425781 C 174.035156 227.839844 184.382812 226.785156 194.214844 226.542969 C 204.804688 226.273438 215.363281 226.96875 225.890625 227.933594 C 236.539062 228.925781 247.15625 230.164062 257.835938 230.917969 C 263.144531 231.28125 268.484375 231.492188 273.824219 231.523438 C 278.832031 231.550781 283.902344 231.582031 288.910156 230.980469 C 293.945312 230.375 298.984375 228.957031 302.847656 225.488281 C 306.222656 222.441406 308.667969 217.796875 307.734375 213.179688 C 307.339844 211.25 304.324219 211.703125 304.324219 213.632812 C 304.355469 217.734375 302.753906 221.203125 299.585938 223.800781 C 296.027344 226.726562 291.261719 227.75 286.828125 228.292969 C 276.75 229.46875 266.496094 229.078125 256.390625 228.382812 C 235.875 226.9375 215.421875 223.589844 194.820312 224.3125 C 184.320312 224.644531 173.703125 225.851562 164.5625 231.402344 C 163.898438 231.792969 164.472656 232.789062 165.164062 232.425781 Z M 165.164062 232.425781 " fill-opacity="1" fill-rule="nonzero"/></g><path fill="#486f99" d="M 169.148438 225.730469 C 178.136719 222.441406 187.429688 221.65625 196.929688 221.597656 C 197.441406 221.597656 197.625 220.722656 197.050781 220.660156 C 187.546875 219.246094 177.652344 221.507812 168.9375 225.335938 C 168.753906 225.429688 168.90625 225.820312 169.148438 225.730469 Z M 169.148438 225.730469 " fill-opacity="1" fill-rule="nonzero"/><path fill="#486f99" d="M 299.316406 231.007812 C 302.785156 230.527344 305.984375 228.867188 308.394531 226.363281 C 309.632812 225.097656 310.6875 223.648438 311.414062 222.050781 C 312.015625 220.78125 313.132812 218.519531 312.226562 217.222656 C 311.804688 216.621094 311.082031 216.527344 310.539062 217.011719 C 309.511719 217.886719 309.664062 219.878906 309.242188 221.144531 C 308.757812 222.59375 308.066406 223.949219 307.191406 225.1875 C 305.230469 227.871094 302.421875 229.832031 299.226562 230.707031 C 299.015625 230.738281 299.105469 231.039062 299.316406 231.007812 Z M 299.316406 231.007812 " fill-opacity="1" fill-rule="nonzero"/><g clip-path="url(#9b7fb649f9)"><path fill="#486f99" d="M 220.140625 158.28125 C 211.273438 162.867188 200.925781 163.921875 191.089844 164.164062 C 180.503906 164.433594 169.945312 163.742188 159.417969 162.777344 C 148.765625 161.78125 138.148438 160.542969 127.46875 159.789062 C 122.160156 159.425781 116.820312 159.214844 111.480469 159.1875 C 106.472656 159.15625 101.40625 159.125 96.398438 159.730469 C 91.359375 160.332031 86.320312 161.75 82.460938 165.21875 C 79.082031 168.265625 76.636719 172.910156 77.574219 177.527344 C 77.964844 179.457031 80.984375 179.003906 80.984375 177.074219 C 80.953125 172.972656 82.550781 169.503906 85.71875 166.910156 C 89.277344 163.980469 94.042969 162.957031 98.480469 162.414062 C 108.554688 161.238281 118.8125 161.628906 128.917969 162.324219 C 149.429688 163.769531 169.882812 167.121094 190.488281 166.394531 C 200.984375 166.0625 211.605469 164.855469 220.746094 159.304688 C 221.410156 158.914062 220.835938 157.917969 220.140625 158.28125 Z M 220.140625 158.28125 " fill-opacity="1" fill-rule="nonzero"/></g><path fill="#486f99" d="M 216.160156 164.976562 C 207.171875 168.265625 197.878906 169.050781 188.375 169.109375 C 187.863281 169.109375 187.683594 169.984375 188.253906 170.046875 C 197.757812 171.464844 207.652344 169.199219 216.371094 165.371094 C 216.550781 165.28125 216.402344 164.886719 216.160156 164.976562 Z M 216.160156 164.976562 " fill-opacity="1" fill-rule="nonzero"/><path fill="#486f99" d="M 85.992188 159.699219 C 82.519531 160.179688 79.324219 161.839844 76.910156 164.34375 C 75.671875 165.609375 74.617188 167.058594 73.894531 168.65625 C 73.289062 169.925781 72.175781 172.1875 73.078125 173.484375 C 73.5 174.089844 74.226562 174.179688 74.769531 173.695312 C 75.792969 172.820312 75.644531 170.828125 76.066406 169.5625 C 76.546875 168.113281 77.242188 166.757812 78.117188 165.519531 C 80.078125 162.835938 82.882812 160.875 86.082031 160 C 86.292969 159.96875 86.203125 159.667969 85.992188 159.699219 Z M 85.992188 159.699219 " fill-opacity="1" fill-rule="nonzero"/></svg>